<svg xmlns="http://www.w3.org/2000/svg" width="156" height="98" viewBox="0 0 156 98">
  <g fill="none" fill-rule="evenodd" transform="translate(1 1)">
    <g transform="translate(57.093)">
      <g transform="translate(.376 23.25)">
        <path fill="#FFB25C" d="M0,18 L25.5414634,18 L25.5414634,22.5 C25.5414634,25.8137085 22.8551719,28.5 19.5414634,28.5 L6,28.5 C2.6862915,28.5 4.05812251e-16,25.8137085 0,22.5 L0,18 Z"/>
        <path fill="#FFB25C" d="M0,0 L25.5414634,0 L25.5414634,4.5 C25.5414634,7.8137085 22.8551719,10.5 19.5414634,10.5 L6,10.5 C2.6862915,10.5 4.05812251e-16,7.8137085 0,4.5 L0,0 Z" transform="rotate(-180 12.77 5.25)"/>
        <path stroke="#FFB25C" stroke-linecap="round" stroke-linejoin="round" stroke-width="3" d="M0.345154911,15 L2.2047387,14.1143542 C3.02079617,13.7256984 3.96859077,13.7256984 4.78464825,14.1143542 L5.32674634,14.3725339 C6.15848083,14.768656 7.1260989,14.7606705 7.95118236,14.3508752 L8.3829344,14.1364363 C9.19347328,13.7338648 10.1424301,13.7187085 10.9654116,14.09519 L11.6226763,14.3958626 C12.4568009,14.7774417 13.4196572,14.7564531 14.2363618,14.3388888 L14.6153796,14.1451049 C15.4142243,13.736672 16.3539407,13.7072177 17.1767959,14.0648203 L18.1329482,14.4803521 C18.8956441,14.8118102 19.7617059,14.8118102 20.5244018,14.4803521 L21.4382292,14.0832142 C22.285204,13.7151295 23.2545066,13.7576465 24.0659995,14.1984774 L25.5414634,15"/>
      </g>
      <g stroke="#2D2A32" stroke-width="2" transform="translate(2.63 22.5)">
        <path d="M1,19 L1,22.5 C1,25.2614237 3.23857625,27.5 6,27.5 L21.795122,27.5 C24.5565457,27.5 26.795122,25.2614237 26.795122,22.5 L26.795122,19 L1,19 Z"/>
        <path d="M1,1 L1,4.5 C1,7.26142375 3.23857625,9.5 6,9.5 L21.795122,9.5 C24.5565457,9.5 26.795122,7.26142375 26.795122,4.5 L26.795122,1 L1,1 Z" transform="rotate(-180 13.898 5.25)"/>
        <path stroke-linecap="round" stroke-linejoin="round" d="M0.375609756,15 L2.60025885,14.0263945 C3.36701167,13.6908293 4.23908589,13.6908293 5.00583871,14.0263945 L6.00201385,14.4623651 C6.78372683,14.8044775 7.67413786,14.7975178 8.45040756,14.4432277 L9.32096362,14.0459053 C10.083367,13.6979438 10.9565627,13.6847478 11.7291325,14.0095123 L12.8550425,14.4828101 C13.6382551,14.8120484 14.5243403,14.7937592 15.2933003,14.4324831 L16.0992644,14.0538215 C16.8512185,13.7005352 17.7160084,13.6748995 18.4875693,13.9830228 L19.9215341,14.5556776 C20.6358488,14.8409396 21.4324439,14.8409396 22.1467586,14.5556776 L23.5411459,13.9988281 C24.3357734,13.6814931 25.228092,13.7185686 25.9936557,14.1007291 L27.795122,15"/>
      </g>
      <path stroke="#2D2A32" stroke-linecap="round" stroke-linejoin="round" stroke-width="2" d="M11.1566401 0L11.1566401 0C13.0485314.996877236 13.7740836 3.33868682 12.7772064 5.2305781 12.4535908 5.84474145 11.9708109 6.36060682 11.3794137 6.72416299L11.1566401 6.86111111 11.1566401 6.86111111C9.11625476 8.11541996 8.47901387 10.7862973 9.73332271 12.8266826 10.0895665 13.4061847 10.577138 13.8937562 11.1566401 14.25M19.4200547 3.75L19.4200547 3.75C21.311946 4.74687724 22.0374982 7.08868682 21.040621 8.9805781 20.7170054 9.59474145 20.2342255 10.1106068 19.6428284 10.474163L19.4200547 10.6111111 19.4200547 10.6111111C17.3796694 11.86542 16.7424285 14.5362973 17.9967373 16.5766826 18.3529811 17.1561847 18.8405527 17.6437562 19.4200547 18"/>
    </g>
    <g transform="translate(0 15)">
      <path fill="#FFF" d="M122.42439,15 L125.478049,15 C133.76232,15 140.478049,21.7157288 140.478049,30 L140.478049,66.75 L107.42439,66.75 L107.42439,30 C107.42439,21.7157288 114.140119,15 122.42439,15 Z"/>
      <path stroke="#2D2A32" stroke-linecap="round" stroke-linejoin="round" stroke-width="2" d="M126.562195,16.5 L129.603659,16.5 C135.816862,16.5 140.853659,21.5367966 140.853659,27.75 L140.853659,71.25 L115.312195,71.25 L115.312195,27.75 C115.312195,21.5367966 120.348992,16.5 126.562195,16.5 Z"/>
      <polygon fill="#FFF" points="49.205 40.5 96.48 40.5 104.044 66.75 49.205 66.75"/>
      <ellipse cx="127.332" cy="5.25" stroke="#2D2A32" stroke-width="2" rx="5.259" ry="5.25"/>
      <g stroke="#2D2A32" stroke-linecap="round" stroke-linejoin="round" stroke-width="2" transform="translate(53.337 66)">
        <ellipse cx="7.512" cy="7.5" rx="7.512" ry="7.5"/>
        <ellipse cx="87.141" cy="7.5" rx="7.512" ry="7.5"/>
      </g>
      <polygon stroke="#2D2A32" stroke-linecap="round" stroke-linejoin="round" stroke-width="2" points="55.215 40.5 92.776 40.5 98.785 71.25 55.215 71.25"/>
      <path fill="#FFF" d="M72.1626016,67 C72.1626016,58.0504767 64.8957827,50.7954545 55.9317073,50.7954545 C46.9676319,50.7954545 39.700813,58.0504767 39.700813,67 L72.1626016,67 Z"/>
      <path stroke="#2D2A32" stroke-linecap="round" stroke-linejoin="round" stroke-width="2" d="M82.6341463,71.25 C82.6341463,59.2378067 72.8805058,49.5 60.8487805,49.5 C48.8170552,49.5 39.0634146,59.2378067 39.0634146,71.25 L82.6341463,71.25 Z"/>
      <path fill="#FFF" d="M147.990244,66.75 C147.990244,59.0870491 141.768094,52.875 134.092683,52.875 C126.417272,52.875 120.195122,59.0870491 120.195122,66.75 L147.990244,66.75 Z"/>
      <path stroke="#2D2A32" stroke-linecap="round" stroke-linejoin="round" stroke-width="2" d="M154,71.25 C154,63.5870491 147.77785,57.375 140.102439,57.375 C132.427028,57.375 126.204878,63.5870491 126.204878,71.25 L154,71.25 Z"/>
      <path fill="#EBEBEB" stroke="#2D2A32" stroke-linecap="round" stroke-linejoin="round" stroke-width="2" d="M78.1268293,71.25 L126.204878,71.25"/>
      <rect width="19.53" height="4" x="51.083" y="72.25" fill="#FFF"/>
      <rect width="19.532" height="4.25" x="51.083" y="66" fill="#FFF"/>
      <rect width="19.532" height="3.75" x="130.712" y="66.5" fill="#FFF"/>
      <rect width="19.532" height="4" x="130.712" y="72.25" fill="#FFF"/>
      <g stroke="#2D2A32" stroke-linecap="round" stroke-linejoin="round" stroke-width="2" transform="matrix(1 0 0 -1 0 66.75)">
        <path d="M0,1.5 L3.75609756,1.5" transform="matrix(-1 0 0 1 3.756 0)"/>
        <path d="M8.26341463,8.25 L14.2731707,8.25" transform="matrix(-1 0 0 1 22.537 0)"/>
        <path d="M8.26341463,1.5 L26.2926829,1.5" transform="matrix(-1 0 0 1 34.556 0)"/>
        <path d="M18.7804878,8.25 L27.795122,8.25" transform="matrix(-1 0 0 1 46.576 0)"/>
        <path d="M27.0439024,15 L33.0536585,15" transform="matrix(-1 0 0 1 60.098 0)"/>
      </g>
      <path stroke="#2D2A32" stroke-linecap="round" stroke-linejoin="round" stroke-width="2" d="M108.17561 5.25L117.190244 5.25M137.473171 5.25L146.487805 5.25"/>
    </g>
  </g>
</svg>
