<svg xmlns="http://www.w3.org/2000/svg" width="136" height="98" viewBox="0 0 136 98">
  <g fill="none" fill-rule="evenodd" transform="translate(-2 -9)">
    <g transform="translate(5.99)">
      <rect width="49.41" height="90.965" rx="3"/>
      <path stroke="#2D2A32" stroke-linecap="round" stroke-linejoin="round" stroke-width="2" d="M.74863388 75.177305L131.010929 75.177305 131.010929 78.1985816C131.010929 81.5122901 128.324637 84.1985816 125.010929 84.1985816L6.74863388 84.1985816C3.43492538 84.1985816.74863388 81.5122901.74863388 78.1985816L.74863388 75.177305zM12.7322404 10.5248227L119.027322 10.5248227C120.684177 10.5248227 122.027322 11.8679684 122.027322 13.5248227L122.027322 75.177305 9.73224044 75.177305 9.73224044 13.5248227C9.73224044 11.8679684 11.0753862 10.5248227 12.7322404 10.5248227z"/>
      <rect width="97.322" height="57.135" x="17.219" y="18.043" stroke="#2D2A32" stroke-linecap="round" stroke-linejoin="round" stroke-width="2"/>
      <path stroke="#2D2A32" stroke-linecap="round" stroke-linejoin="round" stroke-width="2" d="M54.2759563,79.6879433 L77.4836066,79.6879433"/>
    </g>
    <g transform="translate(0 48.113)">
      <rect width="31.443" height="54.879" x="3.743" y="3.007" fill="#FFF" rx="6"/>
      <rect width="31.443" height="54.879" rx="6"/>
      <rect width="31.443" height="54.879" x="3.743" y="3.007" stroke="#2D2A32" stroke-linecap="round" stroke-linejoin="round" stroke-width="2" rx="6"/>
      <path stroke="#2D2A32" stroke-linecap="round" stroke-linejoin="round" stroke-width="2" d="M4.72575137 10.5248227L34.2032104 10.5248227M4.72575137 50.3687943L34.2032104 50.3687943"/>
    </g>
    <g transform="translate(52.404 28.567)">
      <g transform="translate(0 .752)">
        <path fill="#FFB25C" d="M0,22.7905935 L32.1912568,22.7905935 L32.1912568,30.0851064 C32.1912568,33.3988149 29.5049653,36.0851064 26.1912568,36.0851064 L6,36.0851064 C2.6862915,36.0851064 4.05812251e-16,33.3988149 0,30.0851064 L0,22.7905935 Z"/>
        <path fill="#FFB25C" d="M0,0 L32.1912568,0 L32.1912568,7.29451288 C32.1912568,10.6082214 29.5049653,13.2945129 26.1912568,13.2945129 L6,13.2945129 C2.6862915,13.2945129 4.05812251e-16,10.6082214 0,7.29451288 L0,0 Z" transform="rotate(-180 16.096 6.647)"/>
        <path stroke="#FFB25C" stroke-linecap="round" stroke-linejoin="round" stroke-width="3" d="M0.435016984,18.9921613 L3.10976699,17.7124308 C3.92851079,17.320704 4.88058314,17.320704 5.69932694,17.7124308 L7.05166389,18.3594546 C7.8861221,18.7586999 8.85810093,18.7506558 9.68583692,18.3376539 L10.894359,17.7346575 C11.7075149,17.3289305 12.6607515,17.3136619 13.4864845,17.6931378 L14.9874977,18.3829472 C15.8243998,18.767556 16.791592,18.746413 17.6108874,18.3255994 L18.7444568,17.7433657 C19.5458473,17.3317485 20.489796,17.3020755 21.3154572,17.6625462 L23.160608,18.4681102 C23.9259564,18.8022494 24.7959458,18.8022494 25.5612943,18.4681102 L27.3639688,17.6810907 C28.2138041,17.3100659 29.1874529,17.352894 30.0014282,17.7971051 L32.1912568,18.9921613"/>
      </g>
      <g stroke="#2D2A32" stroke-width="2" transform="translate(2.246)">
        <path d="M1,23.7905935 L1,30.0851064 C1,32.8465301 3.23857625,35.0851064 6,35.0851064 L29.1857923,35.0851064 C31.9472161,35.0851064 34.1857923,32.8465301 34.1857923,30.0851064 L34.1857923,23.7905935 L1,23.7905935 Z"/>
        <path d="M1,1 L1,7.29451288 C1,10.0559366 3.23857625,12.2945129 6,12.2945129 L29.1857923,12.2945129 C31.9472161,12.2945129 34.1857923,10.0559366 34.1857923,7.29451288 L34.1857923,1 L1,1 Z" transform="rotate(-180 17.593 6.647)"/>
        <path stroke-linecap="round" stroke-linejoin="round" d="M0.47548368,18.9921613 L3.6112862,17.6195277 C4.37815155,17.2838481 5.25039297,17.2838481 6.01725833,17.6195277 L7.9243866,18.4543342 C8.70621381,18.7965631 9.59679536,18.7896011 10.3731767,18.4351913 L12.1172413,17.6390442 C12.8797548,17.2909649 13.7531177,17.2777646 14.5258024,17.6026405 L16.6001117,18.4747855 C17.3834404,18.8041366 18.2696951,18.7858415 19.0387645,18.4244438 L20.6932777,17.6469623 C21.4453392,17.2935569 22.3102946,17.2679128 23.0819721,17.5761426 L25.5142874,18.547678 C26.2287119,18.8330393 27.0254603,18.8330393 27.7398848,18.547678 L30.1326164,17.5919534 C30.9273631,17.2745092 31.8198518,17.3115966 32.5855211,17.693884 L35.1857923,18.9921613"/>
      </g>
    </g>
    <g transform="translate(94.825 59.39)">
      <path fill="#FFF" d="M20.0964002,23.1196681 L20.0964002,33.6444908 L14.1073292,33.6444908 L14.1073292,23.1196681 L7.36962428,23.1196681 L17.1018647,2.82179576 L26.8341052,23.1196681 L20.0964002,23.1196681 Z" transform="rotate(-30 17.102 18.233)"/>
      <path stroke="#2D2A32" stroke-linecap="round" stroke-linejoin="round" stroke-width="2" d="M20.0964002,23.8714412 L20.0964002,34.3962638 L14.1073292,34.3962638 L14.1073292,23.8714412 L7.36962428,23.8714412 L17.1018647,3.57356881 L26.8341052,23.8714412 L20.0964002,23.8714412 Z" transform="rotate(-30 17.102 18.985)"/>
    </g>
  </g>
</svg>
